<svg version="1.1" xmlns="http://www.w3.org/2000/svg" xmlns:xlink="http://www.w3.org/1999/xlink" viewBox="0 0 61 25.1">
	<style type="text/css">
		.st0{fill:#31666E;}
		.st1{fill:#60C9DD;}
	</style>
	<path class="st0" d="M8.7,25.1c-1,0-1.9-0.8-1.9-1.9c0-1,0.8-1.9,1.9-1.9c2.7,0,4.9-2.2,4.9-4.9c0-1,0.8-1.9,1.9-1.9
		c1,0,1.9,0.8,1.9,1.9C17.3,21.2,13.5,25.1,8.7,25.1z"/>
	<path class="st0" d="M20.5,18.1c-1,0-1.9-0.8-1.9-1.9c0-4.8,3.9-8.7,8.7-8.7c1,0,1.9,0.8,1.9,1.9c0,1-0.8,1.9-1.9,1.9
		c-2.7,0-4.9,2.2-4.9,4.9C22.4,17.3,21.5,18.1,20.5,18.1L20.5,18.1z"/>
	<path class="st0" d="M46.2,25.1c-1,0-1.9-0.8-1.9-1.9c0-1,0.8-1.9,1.9-1.9c2.7,0,4.9-2.2,4.9-4.9c0-1,0.8-1.9,1.9-1.9
		c1,0,1.9,0.8,1.9,1.9C54.9,21.2,51,25.1,46.2,25.1z"/>
	<path class="st0" d="M59.1,25.1c-0.1,0-0.2,0-0.4,0c-0.1,0-0.2-0.1-0.4-0.1c-0.1,0-0.2-0.1-0.3-0.2c-0.1-0.1-0.2-0.1-0.3-0.2
		c-0.1-0.1-0.2-0.2-0.2-0.3c-0.1-0.1-0.1-0.2-0.2-0.3c0-0.1-0.1-0.2-0.1-0.4c0-0.1,0-0.2,0-0.4c0-0.5,0.2-1,0.6-1.3
		c0.1-0.1,0.2-0.2,0.3-0.2c0.1-0.1,0.2-0.1,0.3-0.2c0.1,0,0.2-0.1,0.4-0.1c0.2,0,0.5,0,0.7,0c0.1,0,0.2,0.1,0.4,0.1
		c0.1,0,0.2,0.1,0.3,0.2c0.1,0.1,0.2,0.1,0.3,0.2c0.4,0.4,0.6,0.8,0.6,1.3c0,0.1,0,0.2,0,0.4c0,0.1-0.1,0.2-0.1,0.4
		c0,0.1-0.1,0.2-0.2,0.3c-0.1,0.1-0.2,0.2-0.2,0.3c-0.1,0.1-0.2,0.2-0.3,0.2c-0.1,0.1-0.2,0.1-0.3,0.2c-0.1,0-0.2,0.1-0.4,0.1
		C59.3,25.1,59.2,25.1,59.1,25.1z"/>
	<path class="st1" d="M15.5,25.1c-1,0-1.9-0.8-1.9-1.9v-6.8c0-2.7-2.2-4.9-4.9-4.9c-2.7,0-4.9,2.2-4.9,4.9s2.2,4.9,4.9,4.9
		c1,0,1.9,0.8,1.9,1.9c0,1-0.8,1.9-1.9,1.9c-4.8,0-8.7-3.9-8.7-8.7c0-4.8,3.9-8.7,8.7-8.7c4.8,0,8.7,3.9,8.7,8.7v6.8
		C17.3,24.2,16.5,25.1,15.5,25.1z"/>
	<path class="st1" d="M34.1,25.1c-1,0-1.9-0.8-1.9-1.9v-7c0-2.7-2.2-4.9-4.9-4.9c-1,0-1.9-0.8-1.9-1.9c0-1,0.8-1.9,1.9-1.9
		c4.8,0,8.7,3.9,8.7,8.7v7C36,24.2,35.1,25.1,34.1,25.1z"/>
	<path class="st1" d="M20.5,25.1c-1,0-1.9-0.8-1.9-1.9V1.9c0-1,0.8-1.9,1.9-1.9c1,0,1.9,0.8,1.9,1.9v21.3
		C22.4,24.2,21.5,25.1,20.5,25.1z"/>
	<path class="st1" d="M53,25.1c-1,0-1.9-0.8-1.9-1.9v-6.8c0-2.7-2.2-4.9-4.9-4.9c-2.7,0-4.9,2.2-4.9,4.9s2.2,4.9,4.9,4.9
		c1,0,1.9,0.8,1.9,1.9c0,1-0.8,1.9-1.9,1.9c-4.8,0-8.7-3.9-8.7-8.7c0-4.8,3.9-8.7,8.7-8.7c4.8,0,8.7,3.9,8.7,8.7v6.8
		C54.9,24.2,54.1,25.1,53,25.1z"/>
	<path class="st1" d="M59.1,19c-1,0-1.9-0.8-1.9-1.9V1.9c0-1,0.8-1.9,1.9-1.9c1,0,1.9,0.8,1.9,1.9v15.3C61,18.2,60.1,19,59.1,19z"/>
</svg>
