<?xml version="1.0" encoding="utf-8"?>
<!-- Generator: Adobe Illustrator 22.0.1, SVG Export Plug-In . SVG Version: 6.00 Build 0)  -->
<svg version="1.1" id="Layer_1" xmlns="http://www.w3.org/2000/svg" xmlns:xlink="http://www.w3.org/1999/xlink" x="0px" y="0px"
	 viewBox="0 0 1000 1000" style="enable-background:new 0 0 1000 1000;" xml:space="preserve">
<style type="text/css">

	@keyframes rightRoll {
    0% {
        opacity:0;
    }
    25% {
        opacity:1;
    }
    100% {
        opacity:0;
    }
	}

	.st0{
		fill:#31666E;
		animation: rightRoll 1s ease-in-out infinite;
	}

	.st1{
		fill:#60C9DD;
	}

	.st0:nth-child(1) {
	    
	}
	.st0:nth-child(2) {
	    -webkit-animation-delay: 0.25s;
	}

	.st0:nth-child(3) {
	    -webkit-animation-delay: 0.50s;
	}

	.st0:nth-child(4) {
	    -webkit-animation-delay: 0.75s;
	}

</style>
<g>
	<path class="st0" d="M156.7,697.4c-16.4,0-29.7-13.3-29.7-29.7c0-16.4,13.3-29.7,29.7-29.7c42.5,0,77.1-34.6,77.1-77.1
		c0-16.4,13.3-29.7,29.7-29.7c16.4,0,29.7,13.3,29.7,29.7C293.1,636.1,231.9,697.4,156.7,697.4z"/>
	<path class="st0" d="M343,587.6c-16.4,0-29.7-13.3-29.7-29.7c0-75.3,61.2-136.5,136.5-136.5c16.4,0,29.7,13.3,29.7,29.7
		c0,16.4-13.3,29.7-29.7,29.7c-42.5,0-77.1,34.6-77.1,77.1C372.6,574.3,359.3,587.6,343,587.6L343,587.6z"/>
	<path class="st0" d="M747.8,697.4c-16.4,0-29.7-13.3-29.7-29.7c0-16.4,13.3-29.7,29.7-29.7c42.5,0,77.1-34.6,77.1-77.1
		c0-16.4,13.3-29.7,29.7-29.7c16.4,0,29.7,13.3,29.7,29.7C884.3,636.1,823.1,697.4,747.8,697.4z"/>
	<path class="st0" d="M950.1,697.4c-2,0-3.9-0.2-5.8-0.6c-1.9-0.4-3.7-0.9-5.5-1.7c-1.8-0.8-3.5-1.7-5.2-2.7
		c-1.6-1.1-3.1-2.3-4.5-3.7c-1.4-1.4-2.7-2.9-3.7-4.5c-1.1-1.7-2-3.4-2.7-5.2c-0.7-1.8-1.3-3.6-1.7-5.5c-0.4-2-0.6-3.8-0.6-5.8
		c0-7.8,3.1-15.5,8.7-21c1.4-1.4,2.9-2.6,4.5-3.7c1.6-1.1,3.4-2,5.2-2.7c1.8-0.7,3.6-1.3,5.5-1.7c3.8-0.8,7.8-0.8,11.6,0
		c1.9,0.4,3.7,0.9,5.5,1.7c1.8,0.8,3.5,1.7,5.1,2.7c1.7,1.1,3.1,2.3,4.5,3.7c5.5,5.5,8.7,13.2,8.7,21c0,2-0.2,3.9-0.6,5.8
		c-0.4,1.9-0.9,3.7-1.7,5.5c-0.7,1.8-1.6,3.5-2.7,5.2c-1.1,1.6-2.4,3.1-3.7,4.5c-1.4,1.4-2.8,2.6-4.5,3.7c-1.6,1.1-3.3,2-5.1,2.7
		c-1.8,0.7-3.6,1.3-5.5,1.7C954,697.2,952.1,697.4,950.1,697.4z"/>
	<path class="st1" d="M263.5,697.4c-16.4,0-29.7-13.3-29.7-29.7V560.9c0-42.5-34.6-77.1-77.1-77.1c-42.5,0-77.1,34.6-77.1,77.1
		s34.6,77.1,77.1,77.1c16.4,0,29.7,13.3,29.7,29.7c0,16.4-13.3,29.7-29.7,29.7c-75.3,0-136.5-61.2-136.5-136.5
		c0-75.3,61.2-136.5,136.5-136.5c75.3,0,136.5,61.2,136.5,136.5v106.8C293.1,684.1,279.9,697.4,263.5,697.4z"/>
	<path class="st1" d="M556.6,697.4c-16.4,0-29.7-13.3-29.7-29.7V557.9c0-42.5-34.6-77.1-77.1-77.1c-16.4,0-29.7-13.3-29.7-29.7
		c0-16.4,13.3-29.7,29.7-29.7c75.3,0,136.5,61.2,136.5,136.5v109.8C586.2,684.1,573,697.4,556.6,697.4z"/>
	<path class="st1" d="M343,697.4c-16.4,0-29.7-13.3-29.7-29.7V332.4c0-16.4,13.3-29.7,29.7-29.7c16.4,0,29.7,13.3,29.7,29.7v335.2
		C372.6,684.1,359.3,697.4,343,697.4z"/>
	<path class="st1" d="M854.6,697.4c-16.4,0-29.7-13.3-29.7-29.7V560.9c0-42.5-34.6-77.1-77.1-77.1c-42.5,0-77.1,34.6-77.1,77.1
		s34.6,77.1,77.1,77.1c16.4,0,29.7,13.3,29.7,29.7c0,16.4-13.3,29.7-29.7,29.7c-75.3,0-136.5-61.2-136.5-136.5
		c0-75.3,61.2-136.5,136.5-136.5c75.3,0,136.5,61.2,136.5,136.5v106.8C884.3,684.1,871,697.4,854.6,697.4z"/>
	<path class="st1" d="M950.1,602.5c-16.4,0-29.7-13.3-29.7-29.7V332.5c0-16.4,13.3-29.7,29.7-29.7c16.4,0,29.7,13.3,29.7,29.7v240.3
		C979.8,589.2,966.5,602.5,950.1,602.5z"/>
</g>
</svg>
